<?xml version="1.0" encoding="utf-8"?>
<svg _ngcontent-tlc-c16="" viewBox="0 0 500 500" width="500" height="500" xmlns="http://www.w3.org/2000/svg"
     class="TE_Loader" style="enable-background: new 0 0 500 500;">
  <defs _ngcontent-tlc-c16="">
    <style _ngcontent-tlc-c16="" type="text/css"> .st0 {
      clip-path: url(#XMLID_44_);
      fill: url(#SVGID_1_);
    }

    .st1 {
      clip-path: url(#XMLID_45_);
      fill: url(#SVGID_2_);
    }

    .st2 {
      clip-path: url(#XMLID_46_);
      fill: url(#SVGID_3_);
    }

    .st3 {
      fill: #0073AD;
    } </style>
  </defs>
  <g _ngcontent-tlc-c16="" id="XMLID_1_" transform="matrix(1, 0, 0, 1, -1.84729, -0.056427)">
    <g _ngcontent-tlc-c16="" id="XMLID_2_" transform="matrix(1, 0, 0, 1, -12.931034, 6.157635)">
      <defs _ngcontent-tlc-c16="">
        <path _ngcontent-tlc-c16="" id="XMLID_3_"
              d="M128.3,181.4c-7.6,0-13.9,6.3-13.9,13.9s6.3,13.9,13.9,13.9h95.3c7.6,0,13.9-6.3,13.9-13.9 s-6.3-13.9-13.9-13.9H128.3z"></path>
      </defs>
      <clipPath _ngcontent-tlc-c16="" id="XMLID_44_">
        <path _ngcontent-tlc-c16=""
              d="M128.3,181.4c-7.6,0-13.9,6.3-13.9,13.9s6.3,13.9,13.9,13.9h95.3c7.6,0,13.9-6.3,13.9-13.9 s-6.3-13.9-13.9-13.9H128.3z"
              transform="matrix(1, 0, 0, 1, 0, 0)" style="overflow: visible;"></path>
      </clipPath>
      <linearGradient _ngcontent-tlc-c16="" id="SVGID_1_" gradientUnits="userSpaceOnUse" x1="-1.6929" y1="0.6203"
                      x2="0.8419" y2="0.6203" gradientTransform="matrix(48.6 0 0 -48.6 196.4121 225.4879)">
        <stop _ngcontent-tlc-c16="" offset="0" style="stop-color: #FFFCF8;"></stop>
        <stop _ngcontent-tlc-c16="" offset="0.113" style="stop-color: rgb(253, 214, 170);"></stop>
        <stop _ngcontent-tlc-c16="" offset="0.651" style="stop-color: rgb(233, 131, 0);"></stop>
        <stop _ngcontent-tlc-c16="" offset="0.85" style="stop-color: rgb(233, 131, 0);"></stop>
        <stop _ngcontent-tlc-c16="" offset="1" style="stop-color: rgb(233, 131, 0);"></stop>
      </linearGradient>
      <rect _ngcontent-tlc-c16="" x="114.1" y="181.4" width="123.2" height="27.9" class="st0"></rect>

    </g>
    <g _ngcontent-tlc-c16="" id="XMLID_4_">
      <defs _ngcontent-tlc-c16="">
        <path _ngcontent-tlc-c16="" id="XMLID_5_"
              d="M109.6,251.4c-7.6,0-13.9,6.3-13.9,13.9c0,7.6,6.3,13.9,13.9,13.9h95.3c7.6,0,13.9-6.3,13.9-13.9 c0-7.6-6.3-13.9-13.9-13.9H109.6z"></path>
      </defs>
      <clipPath _ngcontent-tlc-c16="" id="XMLID_45_">
        <path _ngcontent-tlc-c16=""
              d="M109.6,251.4c-7.6,0-13.9,6.3-13.9,13.9c0,7.6,6.3,13.9,13.9,13.9h95.3c7.6,0,13.9-6.3,13.9-13.9 c0-7.6-6.3-13.9-13.9-13.9H109.6z"
              transform="matrix(1, 0, 0, 1, 0, 0)" style="overflow: visible;"></path>
      </clipPath>
      <linearGradient _ngcontent-tlc-c16="" id="SVGID_2_" gradientUnits="userSpaceOnUse" x1="-1.924" y1="-0.2519"
                      x2="0.6107" y2="-0.2519" gradientTransform="matrix(48.6 0 0 -48.6 189.1424 253.0576)">
        <stop _ngcontent-tlc-c16="" offset="0" style="stop-color: #FFFCF8;"></stop>
        <stop _ngcontent-tlc-c16="" offset="0.129" style="stop-color: rgb(253, 214, 170);"></stop>
        <stop _ngcontent-tlc-c16="" offset="0.651" style="stop-color: rgb(233, 131, 0);"></stop>
        <stop _ngcontent-tlc-c16="" offset="0.85" style="stop-color: rgb(233, 131, 0);"></stop>
        <stop _ngcontent-tlc-c16="" offset="1" style="stop-color: rgb(233, 131, 0);"></stop>
      </linearGradient>
      <rect _ngcontent-tlc-c16="" x="95.6" y="251.4" width="123.2" height="27.9" class="st1"></rect>
    </g>
    <g _ngcontent-tlc-c16="" id="XMLID_6_" transform="matrix(1, 0, 0, 1, 3.694581, 3.078818)">
      <defs _ngcontent-tlc-c16="">
        <path _ngcontent-tlc-c16="" id="XMLID_7_"
              d="M81.4,216.4c-7.6,0-13.9,6.3-13.9,13.9c0,7.6,6.3,13.9,13.9,13.9h95.3c7.6,0,13.9-6.3,13.9-13.9 c0-7.6-6.3-13.9-13.9-13.9H81.4z"></path>
      </defs>
      <clipPath _ngcontent-tlc-c16="" id="XMLID_46_">
        <path _ngcontent-tlc-c16=""
              d="M 81.4 216.4 C 73.8 216.4 67.5 222.7 67.5 230.3 C 67.5 237.9 73.8 244.2 81.4 244.2 L 176.7 244.2 C 184.3 244.2 190.6 237.9 190.6 230.3 C 190.6 222.7 184.3 216.4 176.7 216.4 L 81.4 216.4 Z"
              style="overflow: visible;"></path>
      </clipPath>
      <linearGradient _ngcontent-tlc-c16="" id="SVGID_3_" gradientUnits="userSpaceOnUse" x1="0.7387" y1="-0.185"
                      x2="3.2734" y2="-0.185" gradientTransform="matrix(-48.6 0 0 48.6 226.5879 239.3121)">
        <stop _ngcontent-tlc-c16="" offset="0" style="stop-color: rgb(233, 131, 0);"></stop>
        <stop _ngcontent-tlc-c16="" offset="0.103" style="stop-color: rgb(233, 131, 0);"></stop>
        <stop _ngcontent-tlc-c16="" offset="0.318" style="stop-color: rgb(233, 131, 0);"></stop>
        <stop _ngcontent-tlc-c16="" offset="0.888" style="stop-color: rgb(253, 214, 170);"></stop>
        <stop _ngcontent-tlc-c16="" offset="1" style="stop-color: rgb(255, 252, 248);"></stop>
      </linearGradient>
      <rect _ngcontent-tlc-c16="" x="67.5" y="216.4" width="123.2" height="27.9" class="st2"></rect>
    </g>
    <polygon _ngcontent-tlc-c16="" id="XMLID_8_" points="263.7,182.2 257.9,204.2 287.3,204.2 267.2,278.5 292.6,278.5 312.6,204.2 342,204.2
		347.8,182.2 	" class="st3" style="fill: rgb(233, 131, 0);"></polygon>
    <polygon _ngcontent-tlc-c16="" id="XMLID_9_" points="355.2,182.2 329.3,278.5 406.6,278.5 412.5,257.2 360,257.2 364.6,239.7 411.5,239.7
		416.8,220.2 369.9,220.2 374.5,203.5 426.9,203.5 432.5,182.2 	" class="st3"
             style="fill: rgb(233, 131, 0);"></polygon>
    <path _ngcontent-tlc-c16="" id="XMLID_10_"
          d="M239.6,307.9c0-4.8,4.1-8.6,8.6-8.6c3.3,0,5.1,1.5,6.1,3.3l-3,2.3c-0.8-1-1.5-2-3-2 c-2.3,0-4.3,2.3-4.3,5.1c0,1.8,1.3,3,2.8,3c1.3,0,2.3-0.5,3.3-1.5l2,2.8c-1.5,1.3-3,2.3-5.6,2.3 C242.4,314.5,239.6,311.9,239.6,307.9"
          class="st3" style="fill: rgb(233, 131, 0);"></path>
    <path _ngcontent-tlc-c16="" id="XMLID_11_"
          d="M254.3,307.9c0-4.3,3.8-8.4,8.4-8.4c4.3,0,7.1,2.8,7.1,6.8c0,4.3-3.8,8.4-8.4,8.4 C257.1,314.5,254.3,311.7,254.3,307.9 M266,306.1c0-2-1.3-3.3-3-3.3c-2.5,0-4.3,2.8-4.3,4.8c0,2,1.3,3.3,3.3,3.3 C264.2,310.9,266,308.4,266,306.1"
          class="st3" style="fill: rgb(233, 131, 0);"></path>
    <path _ngcontent-tlc-c16="" id="XMLID_14_"
          d="M274.3,299.5h4.1l-0.5,1.5c1-1,2.3-1.8,4.1-1.8c2.5,0,4.3,1.5,4.3,4.3c0,0.8-0.3,1.8-0.5,2.8 l-2,7.9h-4.1l2-8.1c0-0.5,0.3-1,0.3-1.3c0-1.3-0.8-1.8-2-1.8c-1.5,0-2.8,1.3-3,2.8l-2.3,8.1h-4.1L274.3,299.5z"
          class="st3" style="fill: rgb(233, 131, 0);"></path>
    <path _ngcontent-tlc-c16="" id="XMLID_15_"
          d="M291.3,299.5h4.1l-0.5,1.5c1-1,2.3-1.8,4.1-1.8c2.5,0,4.3,1.5,4.3,4.3c0,0.8-0.3,1.8-0.5,2.8 l-2,7.9h-4.1l2.3-8.1c0-0.5,0.3-1,0.3-1.3c0-1.3-0.8-1.8-2-1.8c-1.5,0-2.8,1.3-3,2.8l-2.3,8.1h-4.1L291.3,299.5z"
          class="st3" style="fill: rgb(233, 131, 0);"></path>
    <path _ngcontent-tlc-c16="" id="XMLID_16_"
          d="M312.4,311.2c1,0,2-0.3,3.3-1.3l2,2.5c-1.3,1-3,2-5.6,2c-4.3,0-6.8-2.5-6.8-6.6 c0-4.3,3.5-8.6,8.6-8.6c3.8,0,6.1,2.5,6.1,5.6c0,1-0.3,2.3-0.8,3.3h-10.1C309.3,310.2,310.3,311.2,312.4,311.2 M315.9,305.9 c0-0.3,0.3-0.5,0.3-1c0-1.3-0.8-2-2.3-2c-1.8,0-3.3,1.3-4.1,3H315.9z"
          class="st3" style="fill: rgb(233, 131, 0);"></path>
    <path _ngcontent-tlc-c16="" id="XMLID_19_"
          d="M321.7,307.9c0-4.8,4.1-8.6,8.6-8.6c3.3,0,5.1,1.5,6.1,3.3l-3,2.3c-0.8-1-1.5-2-3-2 c-2.3,0-4.3,2.3-4.3,5.1c0,1.8,1.3,3,2.8,3c1.3,0,2.3-0.5,3.3-1.5l2,2.8c-1.5,1.3-3,2.3-5.6,2.3 C324.5,314.5,321.7,311.9,321.7,307.9"
          class="st3" style="fill: rgb(233, 131, 0);"></path>
    <path _ngcontent-tlc-c16="" id="XMLID_20_"
          d="M337.4,311.7c0-0.5,0-1.3,0.3-1.8l1.8-6.6h-1.8l1-3.5h1.8l1-3.8h4.1l-1,3.8h3.5l-1,3.5h-3.5 l-1.5,6.1c0,0.3,0,0.5,0,0.8c0,0.5,0.3,0.8,1,0.8c0.8,0,1.5-0.3,2-0.5l-1,3.5c-0.8,0.3-1.8,0.5-3,0.5 C338.7,314.5,337.4,313.2,337.4,311.7"
          class="st3" style="fill: rgb(233, 131, 0);"></path>
    <path _ngcontent-tlc-c16="" id="XMLID_21_"
          d="M351.1,299.5h4.1l-3.8,14.7h-4.1L351.1,299.5z M352.7,294.2h4.3l-1,3.8h-4.3L352.7,294.2z" class="st3"
          style="fill: rgb(233, 131, 0);"></path>
    <polygon _ngcontent-tlc-c16="" id="XMLID_24_" points="357.7,299.5 362,299.5 362.8,309.4 368.6,299.5 372.9,299.5 363.3,314.2 359.5,314.2
		" class="st3" style="fill: rgb(233, 131, 0);"></polygon>
    <path _ngcontent-tlc-c16="" id="XMLID_25_"
          d="M375.7,299.5h4.1l-3.8,14.7h-4.3L375.7,299.5z M377,294.2h4.3l-1,3.8H376L377,294.2z" class="st3"
          style="fill: rgb(233, 131, 0);"></path>
    <path _ngcontent-tlc-c16="" id="XMLID_28_"
          d="M381.3,311.7c0-0.5,0-1.3,0.3-1.8l1.8-6.6h-1.5l1-3.5h1.8l1-3.8h4.1l-1,3.8h3.5l-1,3.5h-3.5 l-1.5,6.1c0,0.3,0,0.5,0,0.8c0,0.5,0.3,0.8,1,0.8c0.8,0,1.5-0.3,2-0.5l-1,3.5c-0.8,0.3-1.8,0.5-3,0.5 C382.6,314.5,381.3,313.2,381.3,311.7"
          class="st3" style="fill: rgb(233, 131, 0);"></path>
    <path _ngcontent-tlc-c16="" id="XMLID_29_"
          d="M390.2,317.8l2.3-3c0.5,0.3,1,0.5,1.5,0.5c0.5,0,1-0.3,1.5-1l-1.8-14.7h4.3l0.8,9.9l5.6-9.9 h4.6l-9.1,15c-2,3-3.5,4.1-6.1,4.1C391.9,318.8,390.9,318.3,390.2,317.8"
          class="st3" style="fill: rgb(233, 131, 0);"></path>
  </g>
</svg>
